<svg version="1.1" id="Layer_1" xmlns="http://www.w3.org/2000/svg" xmlns:xlink="http://www.w3.org/1999/xlink" x="0px" y="0px"
	 width="95.766px" height="43.339px" viewBox="0 0 95.766 43.339" enable-background="new 0 0 95.766 43.339" xml:space="preserve">
<rect y="0" fill="#ED1B24" width="95.766" height="43.339"/>
<polygon fill="#FFFFFF" points="82.698,6.153 88.058,6.153 88.058,31.552 92.602,31.552 92.602,37.96 82.698,37.96 "/>
<g>
	<defs>
		<rect id="SVGID_1_" width="95.766" height="43.339"/>
	</defs>
	<clipPath id="SVGID_2_">
		<use xlink:href="#SVGID_1_"  overflow="visible"/>
	</clipPath>
	<path clip-path="url(#SVGID_2_)" fill="#FFFFFF" d="M3.938,37.844V6.153h7.224l2.563,13.282l2.913-13.282h6.991v28.545
		l4.544-28.545h7.107l4.427,28.545V6.27h9.437c0,0,3.263,0.583,4.894,5.126l-0.699-5.243h5.708l2.68,16.428L64.522,6.27h16.079
		v5.942h-4.777v6.524h4.544v6.641H75.94v6.059h4.661v6.408h-10.37V7.318l-5.359,30.525h-6.408l-3.378-20.273
		c0,0-0.583,5.592-3.729,8.156l4.078,12.117h-5.592l-3.961-10.603v10.603H34.58l-0.583-3.029h-4.311l-0.932,3.029H18.036V26.193
		l-2.796,11.651h-2.913L9.763,26.309v11.418L3.938,37.844z M33.415,28.639l-1.631-9.67l-1.398,9.67H33.415z M45.765,21.299
		c3.845-0.233,3.495-5.01,3.495-5.01c-0.583-4.66-3.495-4.427-3.495-4.427V21.299z"/>
</g>
</svg>