<svg xmlns="http://www.w3.org/2000/svg" width="20" height="17" viewBox="0 0 20 17">
<path fill-rule="evenodd" d="M17.647 1.74a7.072 7.072 0 0 1-2.079.585A3.704 3.704 0 0 0 17.16.272a7.13 7.13 0 0 1-2.3.9A3.57 3.57 0 0 0 12.217 0C10.22 0 8.598 1.662 8.598 3.712c0 .291.031.574.093.846-3.009-.155-5.676-1.632-7.463-3.88a3.78 3.78 0 0 0-.49 1.868c0 1.287.64 2.424 1.611 3.09a3.555 3.555 0 0 1-1.64-.463v.045c0 1.8 1.248 3.3 2.905 3.64-.304.088-.624.131-.954.131-.233 0-.461-.022-.682-.066.461 1.475 1.798 2.549 3.382 2.577A7.149 7.149 0 0 1 0 13.04a10.08 10.08 0 0 0 5.55 1.666c6.66 0 10.3-5.656 10.3-10.562 0-.162-.002-.323-.008-.482a7.43 7.43 0 0 0 1.805-1.921"></path>
</svg>