<svg xmlns="http://www.w3.org/2000/svg" width="21" height="15" viewBox="0 0 21 15">
<path fill-rule="evenodd" d="M8.109 9.73l-.001-5.679 5.522 2.85-5.521 2.83zm12.124-6.663s-.2-1.393-.812-2.006c-.778-.806-1.649-.81-2.048-.856C14.513 0 10.223 0 10.223 0h-.009s-4.29 0-7.15.205c-.4.046-1.27.05-2.048.856-.612.613-.812 2.006-.812 2.006S0 4.703 0 6.338v1.534c0 1.636.204 3.272.204 3.272s.2 1.392.812 2.006c.778.805 1.8.78 2.254.864 1.635.155 6.949.203 6.949.203s4.294-.006 7.154-.21c.4-.048 1.27-.052 2.048-.857.612-.614.812-2.006.812-2.006s.204-1.636.204-3.272V6.338c0-1.635-.204-3.271-.204-3.271z"></path>
</svg>