<svg version="1.1" id="Layer_1" xmlns="http://www.w3.org/2000/svg" xmlns:xlink="http://www.w3.org/1999/xlink" x="0px" y="0px"
	 width="177.333px" height="44.667px" viewBox="0 0 177.333 44.667" enable-background="new 0 0 177.333 44.667"
	 xml:space="preserve">
<polyline fill="#D11209" points="9.333,0 177.333,0 168.333,44.667 0,44.667 "/>
<g>
	<path fill="#FFFFFF" d="M46.205,26.823h4.787v2.264h-7.515V15.58h2.728V26.823z"/>
	<path fill="#FFFFFF" d="M61.484,23.548c0,1.813-0.429,3.221-1.285,4.223s-2.046,1.502-3.567,1.502
		c-1.515,0-2.705-0.496-3.571-1.488s-1.305-2.383-1.317-4.17v-2.31c0-1.855,0.43-3.305,1.29-4.347s2.053-1.563,3.582-1.563
		c1.502,0,2.687,0.512,3.553,1.535c0.866,1.024,1.305,2.46,1.317,4.31V23.548z M58.747,21.285c0-1.218-0.173-2.124-0.52-2.718
		c-0.346-0.594-0.884-0.891-1.613-0.891c-0.725,0-1.259,0.286-1.605,0.858s-0.525,1.442-0.538,2.611v2.402
		c0,1.182,0.177,2.053,0.528,2.613c0.354,0.559,0.897,0.838,1.633,0.838c0.712,0,1.24-0.273,1.587-0.82s0.522-1.396,0.528-2.547
		V21.285z"/>
	<path fill="#FFFFFF" d="M69.694,26.323h-3.721l-0.723,2.764h-2.885l4.221-13.507h2.496l4.248,13.507h-2.912L69.694,26.323z
		 M66.567,24.05h2.523l-1.262-4.815L66.567,24.05z"/>
	<path fill="#FFFFFF" d="M74.592,29.087V15.58h3.572c1.578,0,2.834,0.501,3.771,1.503s1.414,2.375,1.434,4.119v2.19
		c0,1.775-0.469,3.168-1.406,4.18c-0.936,1.01-2.227,1.516-3.873,1.516H74.592z M77.321,17.853v8.97h0.816
		c0.908,0,1.549-0.238,1.92-0.719c0.371-0.479,0.566-1.307,0.584-2.482v-2.346c0-1.262-0.176-2.142-0.527-2.64
		c-0.354-0.497-0.953-0.759-1.801-0.783H77.321z"/>
	<path fill="#FFFFFF" d="M93.268,15.58l2.551,9.769l2.543-9.769h3.563v13.507h-2.738v-3.654l0.252-5.632l-2.701,9.287h-1.855
		L92.182,19.8l0.25,5.632v3.654h-2.727V15.58H93.268z"/>
	<path fill="#FFFFFF" d="M113.624,23.548c0,1.813-0.43,3.221-1.285,4.223c-0.857,1.002-2.047,1.502-3.568,1.502
		c-1.514,0-2.705-0.496-3.57-1.488c-0.867-0.992-1.305-2.383-1.318-4.17v-2.31c0-1.855,0.43-3.305,1.289-4.347
		c0.861-1.042,2.055-1.563,3.582-1.563c1.502,0,2.688,0.512,3.553,1.535c0.867,1.024,1.305,2.46,1.318,4.31V23.548z M110.885,21.285
		c0-1.218-0.172-2.124-0.52-2.718c-0.346-0.594-0.883-0.891-1.613-0.891c-0.725,0-1.258,0.286-1.605,0.858
		c-0.346,0.572-0.525,1.442-0.537,2.611v2.402c0,1.182,0.176,2.053,0.527,2.613c0.354,0.559,0.898,0.838,1.633,0.838
		c0.713,0,1.24-0.273,1.588-0.82c0.346-0.547,0.521-1.396,0.527-2.547V21.285z"/>
	<path fill="#FFFFFF" d="M119.672,24.151h-1.355v4.936h-2.727V15.58h4.35c1.367,0,2.424,0.354,3.17,1.063
		c0.744,0.708,1.117,1.715,1.117,3.02c0,1.794-0.652,3.049-1.957,3.767l2.365,5.529v0.129h-2.932L119.672,24.151z M118.317,21.878
		h1.549c0.545,0,0.953-0.181,1.225-0.542c0.273-0.362,0.408-0.846,0.408-1.452c0-1.354-0.527-2.031-1.586-2.031h-1.596V21.878z"/>
	<path fill="#FFFFFF" d="M133.077,23.243h-4.248v3.58h5.027v2.264H126.1V15.58h7.738v2.273h-5.01v3.191h4.248V23.243z"/>
</g>
</svg>