<svg version="1.1" id="Layer_1" xmlns="http://www.w3.org/2000/svg" xmlns:xlink="http://www.w3.org/1999/xlink" x="0px" y="0px"
	 width="123.333px" height="44.667px" viewBox="0 0 123.333 44.667" enable-background="new 0 0 123.333 44.667"
	 xml:space="preserve">
<polyline fill="#D11209" points="9.333,0 123.333,0 114.333,44.667 0,44.667 "/>
<g>
	<path fill="#FFFFFF" d="M60.803,23.548c0,1.813-0.428,3.221-1.285,4.223c-0.855,1.002-2.045,1.502-3.566,1.502
		c-1.516,0-2.706-0.496-3.572-1.488c-0.865-0.992-1.305-2.383-1.316-4.17v-2.31c0-1.855,0.43-3.305,1.289-4.347
		s2.053-1.563,3.581-1.563c1.503,0,2.687,0.512,3.554,1.535c0.865,1.024,1.305,2.46,1.316,4.31V23.548z M58.067,21.285
		c0-1.218-0.174-2.124-0.52-2.718c-0.347-0.594-0.885-0.891-1.614-0.891c-0.724,0-1.259,0.286-1.604,0.858
		c-0.348,0.572-0.526,1.442-0.539,2.611v2.402c0,1.182,0.177,2.053,0.529,2.613c0.353,0.559,0.896,0.838,1.633,0.838
		c0.711,0,1.24-0.273,1.586-0.82c0.347-0.547,0.523-1.396,0.529-2.547V21.285z"/>
	<path fill="#FFFFFF" d="M66.565,23.874l-1.076,1.354v3.859h-2.727V15.58h2.727v5.891l0.863-1.456l2.514-4.435h3.34l-3.869,5.938
		l3.934,7.57h-3.236L66.565,23.874z"/>
</g>
</svg>