<svg version="1.1" id="Layer_1" xmlns="http://www.w3.org/2000/svg" xmlns:xlink="http://www.w3.org/1999/xlink" x="0px" y="0px"
	 width="123.333px" height="44.667px" viewBox="0 0 123.333 44.667" enable-background="new 0 0 123.333 44.667"
	 xml:space="preserve">
<path fill="#D11209" d="M9.333,0h114l-9,44.667H0 M34.542,28.666h2.932v-0.13l-2.366-5.529c1.305-0.718,1.958-1.973,1.958-3.767
	c0-1.305-0.373-2.312-1.118-3.02c-0.746-0.708-1.802-1.063-3.168-1.063h-4.351v13.508h2.728V23.73h1.354L34.542,28.666z
	 M31.156,17.432h1.596c1.058,0,1.586,0.677,1.586,2.031c0,0.606-0.136,1.09-0.408,1.452c-0.272,0.361-0.681,0.542-1.225,0.542
	h-1.549V17.432z M45.916,20.623h-4.248v-3.191h5.01v-2.273h-7.738v13.508h7.756v-2.264h-5.027v-3.581h4.248V20.623z M55.434,28.666
	h2.913l-4.249-13.508h-2.495l-4.222,13.508h2.886l0.723-2.765h3.721L55.434,28.666z M52.845,18.813l1.262,4.815h-2.523
	L52.845,18.813z M63.107,28.666c1.646,0,2.937-0.506,3.873-1.517c0.938-1.012,1.406-2.404,1.406-4.18V20.78
	c-0.02-1.744-0.497-3.117-1.434-4.119c-0.938-1.002-2.194-1.503-3.771-1.503h-3.572v13.508H63.107z M63.33,17.432
	c0.848,0.024,1.447,0.286,1.8,0.783c0.353,0.498,0.528,1.378,0.528,2.64v2.347c-0.018,1.176-0.213,2.003-0.584,2.482
	s-1.012,0.719-1.92,0.719h-0.816v-8.971H63.33z M80.78,15.158V24.5c-0.006,0.742-0.13,1.276-0.371,1.601
	c-0.241,0.325-0.687,0.487-1.336,0.487s-1.098-0.164-1.345-0.492c-0.248-0.327-0.371-0.875-0.371-1.642v-9.296h-2.746v9.287
	c0,1.428,0.381,2.52,1.146,3.274c0.764,0.755,1.869,1.132,3.316,1.132c1.423,0,2.515-0.372,3.274-1.118
	c0.762-0.745,1.147-1.819,1.16-3.224v-9.352H80.78z M90.123,23.916c1.393,0,2.48-0.384,3.266-1.15
	c0.786-0.767,1.179-1.813,1.179-3.136s-0.397-2.399-1.192-3.229s-1.859-1.243-3.195-1.243h-4.602v13.508h2.727v-4.75H90.123z
	 M88.304,17.432h1.902c0.488,0.006,0.878,0.208,1.169,0.607c0.291,0.398,0.437,0.936,0.437,1.609c0,0.649-0.143,1.145-0.428,1.484
	c-0.284,0.34-0.686,0.51-1.205,0.51h-1.875V17.432z"/>
</svg>